<svg height="46.552" viewBox="0 0 46.552 46.552" width="46.552" xmlns="http://www.w3.org/2000/svg"><path d="m106 286h5.455v16.457h-5.455zm0 0" fill="#ff4b00" transform="translate(-96.362 -259.996)"/><path d="m346 286h5.455v16.457h-5.455zm0 0" fill="#d03b00" transform="translate(-314.541 -259.996)"/><path d="m166 286h16.366v16.457h-16.366zm0 0" fill="#ffe470" transform="translate(-150.907 -259.996)"/><path d="m256 286h8.183v16.457h-8.183zm0 0" fill="#fdbf00" transform="translate(-232.724 -259.996)"/><path d="m145.549 62.728v19.184h-24.549v-19.184l12.274-2.728zm0 0" fill="#ffe470" transform="translate(-109.998 -54.545)"/><path d="m268.274 62.728v19.184h-12.274v-21.912zm0 0" fill="#fdbf00" transform="translate(-232.724 -54.545)"/><path d="m91 169.037v5.6l2.046 2.728 3.41-2.728v-9.637zm0 0" fill="#ff4b00" transform="translate(-82.726 -149.998)"/><path d="m361 165v9.638l2.728 2.728 2.728-2.728v-5.6zm0 0" fill="#d03b00" transform="translate(-328.177 -149.998)"/><g fill="#5a5a5a"><path d="m453.728 286v15.093l-1.364 2.728-1.364-2.728v-15.093zm0 0" transform="translate(-409.994 -259.996)"/><path d="m393.728 286v15.093l-1.364 2.728-1.364-2.728v-15.093zm0 0" transform="translate(-355.449 -259.996)"/><path d="m333.728 286v15.093l-1.364 2.728-1.364-2.728v-15.093zm0 0" transform="translate(-300.905 -259.996)"/><path d="m273.728 286v15.093l-1.364 2.728-1.364-2.728v-15.093zm0 0" transform="translate(-246.36 -259.996)"/></g><path d="m213.728 286v15.093l-1.364 2.728-1.364-2.728v-15.093zm0 0" fill="#6e6e6e" transform="translate(-191.816 -259.996)"/><path d="m153.728 286v15.093l-1.364 2.728-1.364-2.728v-15.093zm0 0" fill="#6e6e6e" transform="translate(-137.271 -259.996)"/><path d="m93.728 286v15.093l-1.364 2.728-1.364-2.728v-15.093zm0 0" fill="#6e6e6e" transform="translate(-82.726 -259.996)"/><path d="m33.728 286v15.093l-1.364 2.728-1.364-2.728v-15.093zm0 0" fill="#6e6e6e" transform="translate(-28.181 -259.996)"/><path d="m121 15v4.037a17.171 17.171 0 0 1 -5.455-1.309 16.5 16.5 0 0 1 -4.064-2.373 17.754 17.754 0 0 1 -5.481-7.145 17.762 17.762 0 0 1 -6.955 8.183 16.658 16.658 0 0 1 -2.591 1.336 16.632 16.632 0 0 1 -5.454 1.31v-4.039a15 15 0 0 1 13.638-14.918 11.426 11.426 0 0 1 2.728 0 15 15 0 0 1 13.634 14.918zm0 0" fill="#ff7816" transform="translate(-82.726)"/><path d="m256 8.21v-8.21a11.149 11.149 0 0 1 1.364.082 15 15 0 0 1 13.636 14.918v4.037a17.171 17.171 0 0 1 -5.455-1.309 16.5 16.5 0 0 1 -4.064-2.373 17.754 17.754 0 0 1 -5.481-7.145zm0 0" fill="#ff4b00" transform="translate(-232.724)"/><path d="m0 271h46.552v2.728h-46.552zm0 0" fill="#6e6e6e" transform="translate(0 -246.36)"/><path d="m256 271h23.276v2.728h-23.276zm0 0" fill="#5a5a5a" transform="translate(-232.724 -246.36)"/><path d="m0 452h46.552v5.455h-46.552zm0 0" fill="#ececf1" transform="translate(0 -410.903)"/><path d="m256 452h23.276v5.455h-23.276zm0 0" fill="#d3d3d8" transform="translate(-232.724 -410.903)"/></svg>