<svg height="42.5" viewBox="0 0 51 42.5" width="51" xmlns="http://www.w3.org/2000/svg"><g transform="translate(-2 -7)"><path d="m6 16h44.2v22.95h-44.2z" fill="#ed539d" transform="translate(-.6 -1.35)"/><g fill="#b39a7c"><path d="m57.1 10.55v4.25h-5.1v-4.25a2.55 2.55 0 0 1 5.1 0z" transform="translate(-7.5 -.15)"/><path d="m11.1 10.55v4.25h-5.1v-4.25a2.55 2.55 0 1 1 5.1 0z" transform="translate(-.6 -.15)"/><path d="m58.25 50v5.1h-2.55l-1.7-5.1z" transform="translate(-7.8 -6.45)"/><path d="m9.25 50-1.7 5.1h-2.55v-5.1z" transform="translate(-.45 -6.45)"/></g><path d="m3 42h49.3v6.8h-49.3z" fill="#ffda44" transform="translate(-.15 -5.25)"/><path d="m49.3 25.7v5.1h-15.3v-5.1a1.705 1.705 0 0 1 1.7-1.7h11.9a1.705 1.705 0 0 1 1.7 1.7z" fill="#d8d7da" transform="translate(-4.8 -2.55)"/><path d="m27.3 25.7v5.1h-15.3v-5.1a1.705 1.705 0 0 1 1.7-1.7h11.9a1.705 1.705 0 0 1 1.7 1.7z" fill="#d8d7da" transform="translate(-1.5 -2.55)"/><path d="m50.9 37.1v3.4h-45.9v-3.4a5.015 5.015 0 0 1 .85-2.813 5.086 5.086 0 0 1 4.25-2.287h35.7a5.086 5.086 0 0 1 4.25 2.286 5.015 5.015 0 0 1 .85 2.814z" fill="#5aaae7" transform="translate(-.45 -3.75)"/><path d="m52.15 35.9h-.85v-2.55a5.922 5.922 0 0 0 -.85-3.052v-19.898a3.4 3.4 0 1 0 -6.8 0v3.4h-32.3v-3.4a3.4 3.4 0 1 0 -6.8 0v19.9a5.922 5.922 0 0 0 -.85 3.05v2.55h-.85a.85.85 0 0 0 -.85.85v6.8a.85.85 0 0 0 .85.85h.85v4.25a.85.85 0 0 0 .85.85h2.55a.862.862 0 0 0 .807-.578l1.5-4.522h36.181l1.5 4.522a.862.862 0 0 0 .808.578h2.55a.85.85 0 0 0 .85-.85v-4.25h.85a.85.85 0 0 0 .85-.85v-6.8a.85.85 0 0 0 -.846-.85zm-6.8-25.5a1.7 1.7 0 1 1 3.4 0v3.4h-3.4zm-39.1 0a1.7 1.7 0 1 1 3.4 0v3.4h-3.4zm0 5.1h42.5v12.971a5.939 5.939 0 0 0 -3.4-1.071v-4.25a2.558 2.558 0 0 0 -2.55-2.55h-11.9a2.558 2.558 0 0 0 -2.55 2.55v4.25h-1.7v-4.25a2.558 2.558 0 0 0 -2.55-2.55h-11.9a2.558 2.558 0 0 0 -2.55 2.55v4.25a5.939 5.939 0 0 0 -3.4 1.071zm37.4 7.65v4.25h-13.6v-4.25a.85.85 0 0 1 .85-.85h11.9a.85.85 0 0 1 .85.85zm-18.7 0v4.25h-13.6v-4.25a.85.85 0 0 1 .85-.85h11.9a.85.85 0 0 1 .85.85zm-19.55 10.2a4.25 4.25 0 0 1 4.25-4.25h35.7a4.25 4.25 0 0 1 4.25 4.25v2.55h-44.2zm1.088 14.45h-1.088v-3.4h2.219zm43.112 0h-1.088l-1.131-3.4h2.219zm1.7-5.1h-47.6v-5.1h47.6z"/></g></svg>