<svg height="27" viewBox="0 0 18.852 27" width="18.852" xmlns="http://www.w3.org/2000/svg"><path d="m12.886 28.585a1.351 1.351 0 0 0 1.347 1.347h5.386a1.351 1.351 0 0 0 1.347-1.347v-1.346h-8.08zm4.04-25.585a9.422 9.422 0 0 0 -5.386 17.156v3.044a1.351 1.351 0 0 0 1.347 1.347h8.08a1.351 1.351 0 0 0 1.346-1.347v-3.044a9.422 9.422 0 0 0 -5.387-17.156zm3.838 14.947-1.145.808v3.1h-5.386v-3.1l-1.145-.808a6.733 6.733 0 1 1 7.676 0z" fill="#578cd0" transform="translate(-7.5 -3)"/><path d="m0 0h9a0 0 0 0 1 0 0v2a1 1 0 0 1 -1 1h-7a1 1 0 0 1 -1-1v-2a0 0 0 0 1 0 0z" fill="#002d67" transform="translate(5 24)"/></svg>