<svg height="48" viewBox="0 0 48 48" width="48" xmlns="http://www.w3.org/2000/svg"><path d="m35.9 6.9h5.5v9.6h-5.5z" fill="#f05540"/><path d="m33.8 2h9.7v5.2h-9.7z" fill="#f3705a"/><path d="m44.8 86.8v22.1h39.2v-22.1l-19.6-19.6c-7.6 7.7-11.9 12-19.6 19.6z" fill="#ffd15c" transform="translate(-40.6 -60.9)"/><path d="m84.1 86.8-19.6-19.6c-3.9 3.8-6.9 6.8-9.9 9.8l-9.8 9.8v4.5l19.6-19.6 19.6 19.6v.6-5.1z" fill="#f7b64c" transform="translate(-40.6 -60.9)"/><path d="m102.467 342.834h-11.8v-11.6a5.911 5.911 0 0 1 5.9-5.9 5.911 5.911 0 0 1 5.9 5.9z" fill="#415a6b" transform="translate(-82.167 -294.834)"/><path d="m23.8 30.5h15.4v13.5h-15.4z" fill="#344a5e"/><path d="m25.4 32.1h5.3v10.3h-5.3z" fill="#8ad7f8"/><path d="m32.3 32.1h5.3v10.3h-5.3z" fill="#8ad7f8"/><path d="m47.1 21.8-20.9-20.9a3.262 3.262 0 0 0 -4.5 0l-20.8 20.9a3.262 3.262 0 0 0 0 4.5 3.263 3.263 0 0 0 4.5 0l18.6-18.6 18.6 18.6a3.182 3.182 0 0 0 4.5-4.5z" fill="#f3705a"/></svg>