<svg height="45.306" viewBox="0 0 45.306 45.306" width="45.306" xmlns="http://www.w3.org/2000/svg"><g transform="translate(-24 -24)"><path d="m136 272h23.434v6.249h-23.434z" fill="#4d6378" transform="translate(-101.064 -223.785)"/><path d="m152.4 278.249v-6.249h-9.37v6.249h-7.03v10.151h23.434v-10.151z" fill="#42566b" transform="translate(-101.064 -223.785)"/><path d="m0 0h10.936v21.091h-10.936z" fill="#f6bb00" transform="matrix(-1 0 0 -1 69.306 69.306)"/><path d="m24 24h10.936v17.966h-10.936z" fill="#f6bb00"/><path d="m24 272h10.936v21.091h-10.936z" fill="#f6bb00" transform="translate(0 -223.785)"/><path d="m448 296h1.562v3.125h-1.562z" fill="#eda600" transform="translate(-382.6 -245.441)"/><path d="m0 0h10.936v17.966h-10.936z" fill="#f6bb00" transform="matrix(-1 0 0 -1 69.306 41.966)"/><path d="m168 176h17.185v3.125h-17.185z" fill="#42566b" transform="translate(-129.94 -137.158)"/><path d="m185.185 147.125-3.125-3.125h-10.935l-3.125 3.125z" fill="#4d6378" transform="translate(-129.94 -108.283)"/><path d="m232 296h4.687v1.562h-4.687z" fill="#02c26a" transform="translate(-187.69 -245.441)"/><g fill="#42566b"><circle cx="37" cy="51" r="1"/><ellipse cx="39.5" cy="51" rx=".5" ry="1"/><ellipse cx="53.5" cy="51" rx=".5" ry="1"/><circle cx="56" cy="51" r="1"/></g><path d="m168 368h17.185v3.906h-17.185z" fill="#84d8e8" transform="translate(-129.94 -310.411)"/><path d="m136 440h23.434v4.687h-23.434z" fill="#eda600" transform="translate(-101.064 -375.381)"/><path d="m136 24h11.717v11.717h-11.717z" fill="#eda600" transform="translate(-101.064)"/><path d="m216 88h1.562v3.125h-1.562z" fill="#cf8300" transform="translate(-173.253 -57.751)"/><path d="m48 152h1.562v3.125h-1.562z" fill="#eda600" transform="translate(-21.657 -115.502)"/><path d="m48 296h1.562v3.125h-1.562z" fill="#eda600" transform="translate(-21.657 -245.441)"/><path d="m0 0h11.717v11.717h-11.717z" fill="#de9400" transform="matrix(-1 0 0 -1 58.37 35.717)"/><path d="m280 88h1.562v3.125h-1.562z" fill="#cf8300" transform="translate(-231.004 -57.751)"/><path d="m448 152h1.562v3.125h-1.562z" fill="#eda600" transform="translate(-382.6 -115.502)"/></g></svg>