<svg height="159" viewBox="0 0 139 159" width="139" xmlns="http://www.w3.org/2000/svg" xmlns:xlink="http://www.w3.org/1999/xlink"><filter id="a" filterUnits="userSpaceOnUse" height="70" width="70" x="35" y="89"><feOffset dy="3"/><feGaussianBlur result="blur" stdDeviation="8"/><feFlood flood-color="#ffc72f"/><feComposite in2="blur" operator="in"/><feComposite in="SourceGraphic"/></filter><g filter="url(#a)"><circle cx="11" cy="11" fill="#ffd139" r="11" transform="translate(59 110)"/></g><path d="m30.334 1.617h79.054c3.314 0 4.206 2.324 6 6l23.612 54.383a6 6 0 0 1 -6 6h-127a6 6 0 0 1 -6-6l24.334-54.383c1.503-3.38 2.686-6 6-6z" fill="#fff" transform="translate(0 56)"/><path d="m67 0h5v102h-5z" fill="#fff"/><rect fill="#568bd0" height="58" opacity=".151" rx="2" transform="matrix(.921 -.391 .391 .921 99.828 63.087)" width="4"/></svg>