<svg height="44.333" viewBox="0 0 56 44.333" width="56" xmlns="http://www.w3.org/2000/svg"><path d="m431.458 344.025v-1.825a.582.582 0 0 0 -.58-.58h-7.339a.582.582 0 0 0 -.58.58v1.829z" fill="#9ce8ff" transform="translate(-376.697 -310.085)"/><path d="m411.625 428v2.766a.582.582 0 0 0 .58.58h1.045a.582.582 0 0 0 .58-.58v-2.766z" fill="#ffaf68" transform="translate(-366.604 -387.021)"/><path d="m491.834 430.766a.582.582 0 0 0 .58.58h1.045a.582.582 0 0 0 .58-.58v-2.766h-2.206v2.766z" fill="#ffaf68" transform="translate(-438.04 -387.021)"/><path d="m45.021 38.503h10.978v2.833h-10.978z" fill="#cb7c52"/><path d="m422.012 360.389h-9.8a.592.592 0 0 0 -.59.591v4.7h10.978v-4.7a.592.592 0 0 0 -.588-.591z" fill="#ab5436" transform="translate(-366.603 -326.805)"/><path d="m446.923 382.119h-2.243a.845.845 0 1 1 0-1.69h2.243a.845.845 0 0 1 0 1.69z" fill="#cb7c52" transform="translate(-395.291 -344.653)"/><path d="m36 238.4v-23.66a.82.82 0 1 0 -1.641 0v23.66z" fill="#08375e" transform="translate(-30.603 -196.353)"/><path d="m15.413 434.4h-7a.565.565 0 0 0 -.563.563v1.528a.565.565 0 0 0 .563.563h7z" fill="#63c3ea" transform="translate(-6.991 -392.719)"/><path d="m10.315 436.49v-1.528a.565.565 0 0 1 .563-.563h-2.465a.565.565 0 0 0 -.563.563v1.528a.565.565 0 0 0 .563.563h2.465a.565.565 0 0 1 -.563-.563z" fill="#231f20" opacity=".1" transform="translate(-6.991 -392.72)"/><path d="m9.157 142.224a.565.565 0 0 1 -.563.563h-8.031a.565.565 0 0 1 -.563-.563v-10.224a.565.565 0 0 1 .563-.563h8.03a.565.565 0 0 1 .563.563v10.227z" fill="#ff9f3d" transform="translate(0 -122.891)"/><path d="m2.422 142.224v-10.224a.565.565 0 0 1 .563-.563h-2.422a.565.565 0 0 0 -.563.563v10.227a.565.565 0 0 0 .563.563h2.423a.565.565 0 0 1 -.564-.566z" fill="#231f20" opacity=".1" transform="translate(0 -122.891)"/><path d="m135.233 268.475h-27.087a1.13 1.13 0 0 0 -1.127 1.127v11.398h29.341v-11.4a1.13 1.13 0 0 0 -1.127-1.125z" fill="#ffbb4a" transform="translate(-95.314 -244.944)"/><path d="m110.112 268.475h-1.967a1.13 1.13 0 0 0 -1.127 1.127v11.398h1.967v-11.4a1.13 1.13 0 0 1 1.127-1.125z" fill="#231f20" opacity=".1" transform="translate(-95.314 -244.944)"/><path d="m25.555 23.531h1.641v12.526h-1.641z" fill="#ff9f3d"/><path d="m154.078 332a.565.565 0 0 1 -.563.563h-5.062a.565.565 0 0 1 -.563-.563v-5.066a.565.565 0 0 1 .563-.563h5.062a.565.565 0 0 1 .563.563z" fill="#3eaf91" transform="translate(-131.714 -296.511)"/><path d="m288.207 332a.565.565 0 0 1 -.563.563h-5.062a.565.565 0 0 1 -.563-.563v-5.066a.565.565 0 0 1 .563-.563h5.062a.565.565 0 0 1 .563.563z" fill="#3eaf91" transform="translate(-251.173 -296.511)"/><path d="m11.705 35.64h29.341v5.797h-29.341z" fill="#ff9f3d"/><path d="m74.239 340.463h-2.751a1.15 1.15 0 0 0 -1.146 1.147v11.2a.575.575 0 0 0 .573.574h3.9a.575.575 0 0 0 .573-.574v-11.2a1.15 1.15 0 0 0 -1.149-1.147z" fill="#fcc96c" transform="translate(-62.648 -309.059)"/><path d="m72.76 352.811v-11.2a1.15 1.15 0 0 1 1.146-1.147h-2.418a1.15 1.15 0 0 0 -1.146 1.147v11.2a.575.575 0 0 0 .573.574h2.418a.575.575 0 0 1 -.573-.574z" fill="#231f20" opacity=".1" transform="translate(-62.648 -309.059)"/><path d="m369.747 340.463h-2.747a1.15 1.15 0 0 0 -1.146 1.147v11.2a.575.575 0 0 0 .573.574h3.9a.575.575 0 0 0 .573-.574v-11.2a1.15 1.15 0 0 0 -1.153-1.147z" fill="#fcc96c" transform="translate(-325.835 -309.059)"/><path d="m367.7 352.811v-11.2a1.15 1.15 0 0 1 1.146-1.147h-1.846a1.15 1.15 0 0 0 -1.146 1.147v11.2a.575.575 0 0 0 .573.574h1.844a.575.575 0 0 1 -.571-.574z" fill="#231f20" opacity=".1" transform="translate(-325.836 -309.059)"/><path d="m145.847 77.074h-25.324a.6.6 0 0 0 -.6.6v13.983a.6.6 0 0 0 .6.6h25.323a.6.6 0 0 0 .6-.6v-13.985a.6.6 0 0 0 -.599-.598z" fill="#ab5436" transform="translate(-106.809 -74.478)"/><path d="m142.1 109.331a.329.329 0 0 1 -.328-.328v-9.743a.329.329 0 0 1 .328-.328h21.08a.329.329 0 0 1 .328.328v9.74a.329.329 0 0 1 -.328.328z" fill="#b1e8ff" transform="translate(-126.262 -93.945)"/><g fill="#ffbb4a"><path d="m391.692 222.25a.3.3 0 0 1 -.286-.213c-.47-1.526-.793-1.853-2.3-2.328a.3.3 0 0 1 0-.58c1.509-.475 1.832-.8 2.3-2.328a.3.3 0 0 1 .573 0c.47 1.527.792 1.853 2.3 2.328a.3.3 0 0 1 0 .58c-1.509.475-1.831.8-2.3 2.328a.3.3 0 0 1 -.287.213z" transform="translate(-346.358 -198.731)"/><path d="m427 107.066a.331.331 0 0 1 -.317-.236c-.52-1.69-.878-2.052-2.549-2.579a.337.337 0 0 1 0-.642c1.671-.526 2.029-.888 2.549-2.579a.331.331 0 0 1 .634 0c.521 1.691.878 2.053 2.549 2.579a.337.337 0 0 1 0 .642c-1.671.527-2.028.888-2.549 2.579a.332.332 0 0 1 -.317.236z" transform="translate(-377.54 -95.604)"/><path d="m52.739 58.022a.248.248 0 0 1 -.237-.176c-.389-1.263-.656-1.534-1.9-1.927a.252.252 0 0 1 0-.479c1.249-.393 1.516-.663 1.9-1.927a.248.248 0 0 1 .474 0c.389 1.264.656 1.534 1.9 1.927a.252.252 0 0 1 0 .479c-1.249.394-1.515.664-1.9 1.927a.249.249 0 0 1 -.237.176z" transform="translate(-44.908 -53.336)"/></g><path d="m272.682 143.433-3.545 5.422h7.481l-3.545-5.422a.216.216 0 0 0 -.391 0z" fill="#86d5b5" transform="translate(-239.7 -133.47)"/><path d="m195.948 119.123-5.284 8.081h10.958l-5.284-8.081a.216.216 0 0 0 -.39 0z" fill="#3eaf91" transform="translate(-169.81 -111.818)"/><path d="m148.392 142.328-3.625 5.543h7.639l-3.624-5.543a.216.216 0 0 0 -.39 0z" fill="#86d5b5" transform="translate(-128.933 -132.485)"/><path d="m142.1 98.932a.329.329 0 0 0 -.328.328v9.74a.329.329 0 0 0 .328.328h1.575v-10.4z" fill="#231f20" opacity=".1" transform="translate(-126.262 -93.945)"/><path d="m431.458 320.9a.582.582 0 0 1 -.58.58h-7.339a.582.582 0 0 1 -.58-.58v-1.32a.582.582 0 0 1 .58-.58h7.339a.582.582 0 0 1 .58.58z" fill="#63c3ea" transform="translate(-376.697 -289.943)"/></svg>