<svg height="20.425" viewBox="0 0 20.425 20.425" width="20.425" xmlns="http://www.w3.org/2000/svg"><g fill="#002d67"><path d="m102.765 0a6.367 6.367 0 0 0 -3.8 11.474v.532a1.876 1.876 0 0 0 -.134 2.694 1.879 1.879 0 0 0 .818 3.078 3.162 3.162 0 0 0 6.239 0 1.879 1.879 0 0 0 .812-3.078 1.876 1.876 0 0 0 -.134-2.694v-.532a6.367 6.367 0 0 0 -3.801-11.474zm2.564 12.734a.684.684 0 0 1 0 1.367h-5.129a.684.684 0 1 1 0-1.367zm-2.564 6.495a1.969 1.969 0 0 1 -1.872-1.367h3.745a1.969 1.969 0 0 1 -1.873 1.367zm2.564-2.564h-5.129a.683.683 0 1 1 0-1.367h5.128a.683.683 0 0 1 0 1.367zm.308-6a.6.6 0 0 0 -.266.5v.374h-.726v-2.36l.859-.859a.6.6 0 1 0 -.846-.846l-1.035 1.035a.6.6 0 0 0 -.175.423v2.606h-1.367v-2.607a.6.6 0 0 0 -.175-.423l-1.035-1.035a.6.6 0 1 0 -.846.846l.859.859v2.359h-.726v-.374a.6.6 0 0 0 -.266-.5 5.17 5.17 0 1 1 5.744 0zm0 0" transform="translate(-92.553)"/><path d="m2.479 145.2a.6.6 0 0 0 -.6-.6h-1.279a.6.6 0 1 0 0 1.2h1.28a.6.6 0 0 0 .599-.6zm0 0" transform="translate(0 -138.833)"/><path d="m451.747 144.6h-1.282a.6.6 0 1 0 0 1.2h1.282a.6.6 0 1 0 0-1.2zm0 0" transform="translate(-431.921 -138.833)"/><path d="m33.695 249.112-1.11.641a.6.6 0 1 0 .6 1.036l1.11-.641a.6.6 0 1 0 -.6-1.037zm0 0" transform="translate(-30.997 -239.097)"/><path d="m422.48 25.937a.6.6 0 0 0 .3-.08l1.11-.641a.6.6 0 1 0 -.6-1.036l-1.11.641a.6.6 0 0 0 .3 1.117zm0 0" transform="translate(-405.051 -23.138)"/><path d="m423.888 249.757-1.11-.641a.6.6 0 1 0 -.6 1.036l1.11.641a.6.6 0 1 0 .6-1.036zm0 0" transform="translate(-405.05 -239.101)"/><path d="m34.3 24.821-1.11-.641a.6.6 0 0 0 -.6 1.036l1.11.641a.6.6 0 0 0 .6-1.037zm0 0" transform="translate(-31 -23.139)"/></g></svg>